<?xml version="1.0" encoding="utf-8"?>
<!-- Generator: Adobe Illustrator 27.4.0, SVG Export Plug-In . SVG Version: 6.00 Build 0)  -->
<svg version="1.1" id="Camada_1" xmlns="http://www.w3.org/2000/svg" xmlns:xlink="http://www.w3.org/1999/xlink" x="0px" y="0px"
	 viewBox="0 0 189 54" style="enable-background:new 0 0 189 54;" xml:space="preserve">
<style type="text/css">
	.st0{fill:#F8F8FF;}
	.st1{fill-rule:evenodd;clip-rule:evenodd;fill:url(#SVGID_1_);}
</style>
<path class="st0" d="M54.8,36.5c2.6,0,5-0.7,6.8-2.2c1.9-1.5,3-3.7,3-6.8c0-6.1-3.6-9.3-9.5-9.3c-3.5,0-6.4,1.2-8,3.7v-8.7h-5V36
	h4.4l0.3-2.8C48.1,35.4,50.7,36.5,54.8,36.5z M53.1,32.4c-4.3,0-6.2-1.6-6.2-4.9c0-3.4,2.3-5.2,6.3-5.2c4.4,0,6.2,1.8,6.2,5.2
	C59.3,30.7,57.7,32.4,53.1,32.4z"/>
<path class="st0" d="M83.8,31.9l0.4,4.1h4.1V25.3c0-3.8-1.6-5.7-4.6-6.5c-1.5-0.4-3.4-0.6-5.6-0.6c-6.6,0-10.3,2-10.9,6.6h5.2
	c0.2-1.4,0.9-2.2,2.6-2.6c0.8-0.2,2-0.3,3.5-0.3c2.5,0,3.8,0.5,4.4,1.2c0.3,0.4,0.4,0.7,0.4,1.1v0c0,0.8-0.5,1.1-1.9,1.4
	c-0.7,0.1-1.7,0.2-3,0.3c-3.7,0.2-5.7,0.4-7.1,0.8c-0.7,0.2-1.3,0.4-1.9,0.7c-1.9,0.9-2.7,2.4-2.7,4.4v0c0,3.3,2.6,4.9,7.3,4.9
	C79.2,36.6,82.4,34.7,83.8,31.9z M75.7,33c-2.5,0-3.5-0.6-3.5-1.7v0c0-0.7,0.4-1.2,1.1-1.6c0.9-0.4,2.4-0.7,5.7-0.8
	c2.8-0.1,4-0.6,4.5-1.2v0.1c0,1.7-1.4,3.4-3.8,4.4C78.6,32.7,77.3,33,75.7,33z"/>
<path class="st0" d="M102.3,36.6c6.7,0,10.1-2.5,10.1-6c0-1.8-0.5-3-2-3.8c-1.4-0.8-3.9-1.3-7.9-1.4c-2.9-0.1-4.5-0.3-5.3-0.5
	c-0.8-0.3-1-0.6-1-1.1c0-0.6,0.5-1.2,1.8-1.6c0.7-0.2,1.6-0.3,2.9-0.3c3.2,0,5.3,0.5,5.8,2.3h5.5c-1.3-4.2-4.8-6-11.2-6
	c-4.4,0-7.2,1.1-8.6,2.9c-0.7,0.9-1.1,1.9-1.1,3.1c0,3.4,2.7,4.8,9.5,5c2.9,0.1,4.6,0.2,5.5,0.5c0.9,0.2,1.1,0.5,1.1,1.1
	c0,1.2-1.1,1.9-4.8,1.9c-4,0-5.5-0.7-6-2.4h-5.8C91.5,34.6,95.2,36.6,102.3,36.6z"/>
<path class="st0" d="M118.2,16.1c2.2,0,3.3-0.9,3.3-3.1c0-2.2-1.2-3-3.3-3c-2.1,0-3.3,0.8-3.3,3C114.9,15.4,115.8,16.1,118.2,16.1z
	 M115.4,36h5.2V18.8h-5.2V36z"/>
<path class="st0" d="M124.7,36h5.1V13.2h-5.1V36z"/>
<path class="st0" d="M136.6,16.1c2.2,0,3.3-0.9,3.3-3.1c0-2.2-1.2-3-3.3-3c-2.1,0-3.3,0.8-3.3,3C133.3,15.4,134.2,16.1,136.6,16.1z
	 M133.9,36h5.2V18.8h-5.2V36z"/>
<path class="st0" d="M153.1,36.6c6.7,0,10.1-2.5,10.1-6c0-1.8-0.5-3-2-3.8c-1.4-0.8-3.9-1.3-7.9-1.4c-2.9-0.1-4.5-0.3-5.3-0.5
	c-0.8-0.3-1-0.6-1-1.1c0-0.6,0.4-1.2,1.8-1.6c0.7-0.2,1.6-0.3,2.9-0.3c3.2,0,5.3,0.5,5.8,2.3h5.5c-1.3-4.2-4.8-6-11.2-6
	c-4.4,0-7.2,1.1-8.6,2.9c-0.7,0.9-1.1,1.9-1.1,3.1c0,3.4,2.7,4.8,9.5,5c2.9,0.1,4.6,0.2,5.5,0.5c0.9,0.2,1.1,0.5,1.1,1.1
	c0,1.2-1.1,1.9-4.8,1.9c-4,0-5.5-0.7-6-2.4h-5.9C142.3,34.6,146,36.6,153.1,36.6z"/>
<path class="st0" d="M176,28l6.3,8h6.1l-8.5-10.5l8.2-6.7h-6.9l-10.2,8.5v-14h-5V36h5v-4L176,28z"/>
<linearGradient id="SVGID_1_" gradientUnits="userSpaceOnUse" x1="12.6158" y1="55.2575" x2="15.6915" y2="2.9923" gradientTransform="matrix(1 0 0 -1 0 56)">
	<stop  offset="0" style="stop-color:#172FFF"/>
	<stop  offset="1" style="stop-color:#61FFEC"/>
</linearGradient>
<path class="st1" d="M18.7,20.5l-8,4.8c-0.1,0.1-0.2,0.1-0.3,0.2c-0.8,0.5-1.5,0.9-1.4,3.1l0.3,5l8.2-4.8c0.6-0.4,1.4-1.2,1.4-3.4
	L18.7,20.5z M21.7,18.7c2.6-1.9,4.3-5.2,4.1-8.9c-0.3-4.7-3.8-8.5-8.2-9.4L18,8.2c0.1,2.2-0.7,3-1.4,3.4L5.7,18
	c-2.6,1.7-4.4,5.1-4.2,8.8c0.2,3.6,2.3,6.7,5.2,8.3l0,0c-2.6,1.7-4.4,5.1-4.2,8.8c0.3,4.7,3.8,8.5,8.2,9.4l-0.5-7.7
	c-0.1-2.2,0.6-2.6,1.4-3.1c0.1-0.1,0.2-0.1,0.3-0.2l10.9-6.5c2.6-1.9,4.4-5.2,4.2-8.9C26.6,23.4,24.6,20.4,21.7,18.7z"/>
</svg>
