<?xml version="1.0" encoding="UTF-8"?><svg id="Camada_2" xmlns="http://www.w3.org/2000/svg" xmlns:xlink="http://www.w3.org/1999/xlink" viewBox="0 0 25.37 52.85"><defs><style>.cls-1{fill:url(#Gradiente_sem_nome);fill-rule:evenodd;}</style><linearGradient id="Gradiente_sem_nome" x1="11.14" y1="54.81" x2="14.22" y2="2.54" gradientTransform="translate(0 55.1) scale(1 -1)" gradientUnits="userSpaceOnUse"><stop offset="0" stop-color="#172fff"/><stop offset="1" stop-color="#61ffec"/></linearGradient></defs><g id="Camada_1-2"><path class="cls-1" d="m17.27,20.04l-7.97,4.77c-.09.06-.18.11-.27.16-.8.47-1.45.86-1.38,3.05l.33,5.02,8.19-4.83c.61-.39,1.41-1.18,1.36-3.38l-.27-4.79Zm2.94-1.77c2.59-1.87,4.34-5.2,4.13-8.86-.28-4.74-3.77-8.54-8.24-9.42l.43,7.72c.05,2.21-.75,2.99-1.36,3.38l-10.97,6.47C1.58,19.31-.2,22.66.02,26.35c.21,3.62,2.3,6.7,5.23,8.32l-.04.02c-2.63,1.74-4.41,5.09-4.19,8.78.28,4.74,3.77,8.54,8.15,9.38l-.51-7.7c-.07-2.2.59-2.58,1.38-3.05.09-.05.18-.1.27-.16l10.86-6.5c2.61-1.86,4.39-5.21,4.17-8.89-.21-3.57-2.24-6.6-5.13-8.26Z"/></g></svg>